<svg xmlns="http://www.w3.org/2000/svg" viewBox="0 0 29.15 16.82"><g id="Capa_2" data-name="Capa 2"><g id="Capa_1-2" data-name="Capa 1" fill="none" stroke="#132f43"><path d="M.56 1v2.32l.29.12A5.28 5.28 0 0 1 4 8.34a5.25 5.25 0 0 1-3.17 5l-.3.11v2.77H1l27.16.12h.46V13.4l-.31-.11a5.21 5.21 0 0 1-3.32-5 5.24 5.24 0 0 1 3.36-5l.31-.1V.63h-.46L1 .5H.56z"/><path d="M.56 1v2.32l.29.12A5.28 5.28 0 0 1 4 8.34a5.25 5.25 0 0 1-3.17 5l-.3.11v2.77H1l27.16.12h.46V13.4l-.31-.11a5.21 5.21 0 0 1-3.32-5 5.24 5.24 0 0 1 3.36-5l.31-.1V.63h-.46L1 .5H.56z" stroke-width=".5"/><path stroke-width=".92" stroke-dasharray="1.5,1.5" d="M10.46 15.78l.12-14.8"/></g></g></svg>